<?xml version="1.0" encoding="UTF-8" standalone="no"?><svg xmlns="http://www.w3.org/2000/svg" xmlns:xlink="http://www.w3.org/1999/xlink" contentStyleType="text/css" height="634px" preserveAspectRatio="none" style="width:767px;height:634px;background:#FFFFFF;" version="1.1" viewBox="0 0 767 634" width="767px" zoomAndPan="magnify"><defs/><g><!--MD5=[55dd6ab5c555ce5c49ff12deded08f2e]
cluster ski--><g id="cluster_ski"><path d="M24.5,6 L48.5,6 A3.75,3.75 0 0 1 51,8.5 L58,28.2969 L583.5,28.2969 A2.5,2.5 0 0 1 586,30.7969 L586,367.5 A2.5,2.5 0 0 1 583.5,370 L24.5,370 A2.5,2.5 0 0 1 22,367.5 L22,8.5 A2.5,2.5 0 0 1 24.5,6 " style="stroke:#000000;stroke-width:1.5;fill:none;"/><line style="stroke:#000000;stroke-width:1.5;fill:none;" x1="22" x2="58" y1="28.2969" y2="28.2969"/><text fill="#000000" font-family="sans-serif" font-size="14" font-weight="bold" lengthAdjust="spacing" textLength="23" x="26" y="20.9951">ski</text></g><!--MD5=[cbbcdfd2ff286cf453505908e439d9c0]
cluster logic--><g id="cluster_logic"><path d="M8.5,394 L48.5,394 A3.75,3.75 0 0 1 51,396.5 L58,416.2969 L757.5,416.2969 A2.5,2.5 0 0 1 760,418.7969 L760,624.5 A2.5,2.5 0 0 1 757.5,627 L8.5,627 A2.5,2.5 0 0 1 6,624.5 L6,396.5 A2.5,2.5 0 0 1 8.5,394 " style="stroke:#000000;stroke-width:1.5;fill:none;"/><line style="stroke:#000000;stroke-width:1.5;fill:none;" x1="6" x2="58" y1="416.2969" y2="416.2969"/><text fill="#000000" font-family="sans-serif" font-size="14" font-weight="bold" lengthAdjust="spacing" textLength="39" x="10" y="408.9951">logic</text></g><!--MD5=[19cfe72586b7d42db67d71afc75a0e8e]
cluster datalog--><g id="cluster_datalog"><path d="M71.5,437 L135.5,437 A3.75,3.75 0 0 1 138,439.5 L145,459.2969 L733.5,459.2969 A2.5,2.5 0 0 1 736,461.7969 L736,600.5 A2.5,2.5 0 0 1 733.5,603 L71.5,603 A2.5,2.5 0 0 1 69,600.5 L69,439.5 A2.5,2.5 0 0 1 71.5,437 " style="stroke:#000000;stroke-width:1.5;fill:none;"/><line style="stroke:#000000;stroke-width:1.5;fill:none;" x1="69" x2="145" y1="459.2969" y2="459.2969"/><text fill="#000000" font-family="sans-serif" font-size="14" font-weight="bold" lengthAdjust="spacing" textLength="63" x="73" y="451.9951">datalog</text></g><!--MD5=[134e907e6cf414437f990521d1b8a4fe]
cluster grammar--><g id="cluster_grammar"><path d="M536.5,480 L611.5,480 A3.75,3.75 0 0 1 614,482.5 L621,502.2969 L709.5,502.2969 A2.5,2.5 0 0 1 712,504.7969 L712,576.5 A2.5,2.5 0 0 1 709.5,579 L536.5,579 A2.5,2.5 0 0 1 534,576.5 L534,482.5 A2.5,2.5 0 0 1 536.5,480 " style="stroke:#000000;stroke-width:1.5;fill:none;"/><line style="stroke:#000000;stroke-width:1.5;fill:none;" x1="534" x2="621" y1="502.2969" y2="502.2969"/><text fill="#000000" font-family="sans-serif" font-size="14" font-weight="bold" lengthAdjust="spacing" textLength="74" x="538" y="494.9951">grammar</text></g><!--MD5=[0b751655c2c1ffbfbd2272aa0ecbc96a]
class Injector--><g id="elem_Injector"><rect codeLine="3" fill="#F1F1F1" height="80.5938" id="Injector" rx="2.5" ry="2.5" style="stroke:#181818;stroke-width:0.5;" width="319" x="124.5" y="41"/><ellipse cx="252.75" cy="57" fill="#B4A7E5" rx="11" ry="11" style="stroke:#181818;stroke-width:1.0;"/><path d="M253.7031,53.7813 L255.4219,53.7813 C255.8125,53.7813 256,53.75 256.125,53.6719 C256.3906,53.5156 256.5313,53.2344 256.5313,52.9375 C256.5313,52.6719 256.4219,52.4063 256.1875,52.2344 C256.0156,52.125 255.875,52.0938 255.4219,52.0938 L250.2813,52.0938 C249.8438,52.0938 249.7188,52.1094 249.5625,52.2031 C249.3125,52.3594 249.1563,52.6563 249.1563,52.9375 C249.1563,53.2188 249.2969,53.4688 249.5156,53.6406 C249.6719,53.75 249.8594,53.7813 250.2813,53.7813 L252,53.7813 L252,60.2969 L250.2813,60.2969 C249.8438,60.2969 249.7188,60.3125 249.5625,60.4219 C249.3125,60.5781 249.1563,60.8594 249.1563,61.1563 C249.1563,61.4063 249.2969,61.6719 249.5156,61.8281 C249.6719,61.9531 249.875,62 250.2813,62 L255.4219,62 C256.1719,62 256.5313,61.7188 256.5313,61.1563 C256.5313,60.875 256.4219,60.625 256.1875,60.4531 C256.0156,60.3281 255.875,60.2969 255.4219,60.2969 L253.7031,60.2969 L253.7031,53.7813 Z " fill="#000000"/><text fill="#000000" font-family="sans-serif" font-size="14" font-style="italic" lengthAdjust="spacing" textLength="54" x="273.25" y="61.8467">Injector</text><line style="stroke:#181818;stroke-width:0.5;" x1="125.5" x2="442.5" y1="73" y2="73"/><ellipse cx="135.5" cy="84" fill="none" rx="3" ry="3" style="stroke:#038048;stroke-width:1.0;"/><text fill="#000000" font-family="sans-serif" font-size="14" lengthAdjust="spacing" textLength="144" x="144.5" y="89.9951">predictor: Predictor</text><line style="stroke:#181818;stroke-width:0.5;" x1="125.5" x2="442.5" y1="97.2969" y2="97.2969"/><ellipse cx="135.5" cy="108.2969" fill="#84BE84" rx="3" ry="3" style="stroke:#038048;stroke-width:1.0;"/><text fill="#000000" font-family="sans-serif" font-size="14" lengthAdjust="spacing" textLength="293" x="144.5" y="114.292">inject(formulae: List[Formula]): Predictor</text></g><!--MD5=[12d5cb9a516ff0522ea5edd8c6ca6601]
class Formula--><g id="elem_Formula"><rect codeLine="8" fill="#F1F1F1" height="48" id="Formula" rx="2.5" ry="2.5" style="stroke:#181818;stroke-width:0.5;" width="91" x="478.5" y="57.5"/><ellipse cx="493.5" cy="73.5" fill="#B4A7E5" rx="11" ry="11" style="stroke:#181818;stroke-width:1.0;"/><path d="M494.4531,70.2813 L496.1719,70.2813 C496.5625,70.2813 496.75,70.25 496.875,70.1719 C497.1406,70.0156 497.2813,69.7344 497.2813,69.4375 C497.2813,69.1719 497.1719,68.9063 496.9375,68.7344 C496.7656,68.625 496.625,68.5938 496.1719,68.5938 L491.0313,68.5938 C490.5938,68.5938 490.4688,68.6094 490.3125,68.7031 C490.0625,68.8594 489.9063,69.1563 489.9063,69.4375 C489.9063,69.7188 490.0469,69.9688 490.2656,70.1406 C490.4219,70.25 490.6094,70.2813 491.0313,70.2813 L492.75,70.2813 L492.75,76.7969 L491.0313,76.7969 C490.5938,76.7969 490.4688,76.8125 490.3125,76.9219 C490.0625,77.0781 489.9063,77.3594 489.9063,77.6563 C489.9063,77.9063 490.0469,78.1719 490.2656,78.3281 C490.4219,78.4531 490.625,78.5 491.0313,78.5 L496.1719,78.5 C496.9219,78.5 497.2813,78.2188 497.2813,77.6563 C497.2813,77.375 497.1719,77.125 496.9375,76.9531 C496.7656,76.8281 496.625,76.7969 496.1719,76.7969 L494.4531,76.7969 L494.4531,70.2813 Z " fill="#000000"/><text fill="#000000" font-family="sans-serif" font-size="14" font-style="italic" lengthAdjust="spacing" textLength="59" x="507.5" y="78.3467">Formula</text><line style="stroke:#181818;stroke-width:0.5;" x1="479.5" x2="568.5" y1="89.5" y2="89.5"/><line style="stroke:#181818;stroke-width:0.5;" x1="479.5" x2="568.5" y1="97.5" y2="97.5"/></g><!--MD5=[5f312b2722c7bebcecf117a2591fb751]
class Fuzzifier--><g id="elem_Fuzzifier"><rect codeLine="10" fill="#F1F1F1" height="64.2969" id="Fuzzifier" rx="2.5" ry="2.5" style="stroke:#181818;stroke-width:0.5;" width="268" x="139" y="182"/><ellipse cx="239.25" cy="198" fill="#B4A7E5" rx="11" ry="11" style="stroke:#181818;stroke-width:1.0;"/><path d="M240.2031,194.7813 L241.9219,194.7813 C242.3125,194.7813 242.5,194.75 242.625,194.6719 C242.8906,194.5156 243.0313,194.2344 243.0313,193.9375 C243.0313,193.6719 242.9219,193.4063 242.6875,193.2344 C242.5156,193.125 242.375,193.0938 241.9219,193.0938 L236.7813,193.0938 C236.3438,193.0938 236.2188,193.1094 236.0625,193.2031 C235.8125,193.3594 235.6563,193.6563 235.6563,193.9375 C235.6563,194.2188 235.7969,194.4688 236.0156,194.6406 C236.1719,194.75 236.3594,194.7813 236.7813,194.7813 L238.5,194.7813 L238.5,201.2969 L236.7813,201.2969 C236.3438,201.2969 236.2188,201.3125 236.0625,201.4219 C235.8125,201.5781 235.6563,201.8594 235.6563,202.1563 C235.6563,202.4063 235.7969,202.6719 236.0156,202.8281 C236.1719,202.9531 236.375,203 236.7813,203 L241.9219,203 C242.6719,203 243.0313,202.7188 243.0313,202.1563 C243.0313,201.875 242.9219,201.625 242.6875,201.4531 C242.5156,201.3281 242.375,201.2969 241.9219,201.2969 L240.2031,201.2969 L240.2031,194.7813 Z " fill="#000000"/><text fill="#000000" font-family="sans-serif" font-size="14" font-style="italic" lengthAdjust="spacing" textLength="59" x="259.75" y="202.8467">Fuzzifier</text><line style="stroke:#181818;stroke-width:0.5;" x1="140" x2="406" y1="214" y2="214"/><line style="stroke:#181818;stroke-width:0.5;" x1="140" x2="406" y1="222" y2="222"/><ellipse cx="150" cy="233" fill="#84BE84" rx="3" ry="3" style="stroke:#038048;stroke-width:1.0;"/><text fill="#000000" font-family="sans-serif" font-size="14" lengthAdjust="spacing" textLength="242" x="159" y="238.9951">visit(formulae: List[Formula]): Any</text></g><!--MD5=[a31ccead2bfbbf7157e31933ed1bc399]
class ConstrainingFuzzifier--><g id="elem_ConstrainingFuzzifier"><rect codeLine="14" fill="#F1F1F1" height="48" id="ConstrainingFuzzifier" rx="2.5" ry="2.5" style="stroke:#181818;stroke-width:0.5;" width="181" x="328.5" y="306"/><ellipse cx="343.5" cy="322" fill="#B4A7E5" rx="11" ry="11" style="stroke:#181818;stroke-width:1.0;"/><path d="M344.4531,318.7813 L346.1719,318.7813 C346.5625,318.7813 346.75,318.75 346.875,318.6719 C347.1406,318.5156 347.2813,318.2344 347.2813,317.9375 C347.2813,317.6719 347.1719,317.4063 346.9375,317.2344 C346.7656,317.125 346.625,317.0938 346.1719,317.0938 L341.0313,317.0938 C340.5938,317.0938 340.4688,317.1094 340.3125,317.2031 C340.0625,317.3594 339.9063,317.6563 339.9063,317.9375 C339.9063,318.2188 340.0469,318.4688 340.2656,318.6406 C340.4219,318.75 340.6094,318.7813 341.0313,318.7813 L342.75,318.7813 L342.75,325.2969 L341.0313,325.2969 C340.5938,325.2969 340.4688,325.3125 340.3125,325.4219 C340.0625,325.5781 339.9063,325.8594 339.9063,326.1563 C339.9063,326.4063 340.0469,326.6719 340.2656,326.8281 C340.4219,326.9531 340.625,327 341.0313,327 L346.1719,327 C346.9219,327 347.2813,326.7188 347.2813,326.1563 C347.2813,325.875 347.1719,325.625 346.9375,325.4531 C346.7656,325.3281 346.625,325.2969 346.1719,325.2969 L344.4531,325.2969 L344.4531,318.7813 Z " fill="#000000"/><text fill="#000000" font-family="sans-serif" font-size="14" font-style="italic" lengthAdjust="spacing" textLength="149" x="357.5" y="326.8467">ConstrainingFuzzifier</text><line style="stroke:#181818;stroke-width:0.5;" x1="329.5" x2="508.5" y1="338" y2="338"/><line style="stroke:#181818;stroke-width:0.5;" x1="329.5" x2="508.5" y1="346" y2="346"/></g><!--MD5=[7d18afa09086434cade1e128d11d5dad]
class StructuringFuzzifier--><g id="elem_StructuringFuzzifier"><rect codeLine="15" fill="#F1F1F1" height="48" id="StructuringFuzzifier" rx="2.5" ry="2.5" style="stroke:#181818;stroke-width:0.5;" width="170" x="85" y="306"/><ellipse cx="100" cy="322" fill="#B4A7E5" rx="11" ry="11" style="stroke:#181818;stroke-width:1.0;"/><path d="M100.9531,318.7813 L102.6719,318.7813 C103.0625,318.7813 103.25,318.75 103.375,318.6719 C103.6406,318.5156 103.7813,318.2344 103.7813,317.9375 C103.7813,317.6719 103.6719,317.4063 103.4375,317.2344 C103.2656,317.125 103.125,317.0938 102.6719,317.0938 L97.5313,317.0938 C97.0938,317.0938 96.9688,317.1094 96.8125,317.2031 C96.5625,317.3594 96.4063,317.6563 96.4063,317.9375 C96.4063,318.2188 96.5469,318.4688 96.7656,318.6406 C96.9219,318.75 97.1094,318.7813 97.5313,318.7813 L99.25,318.7813 L99.25,325.2969 L97.5313,325.2969 C97.0938,325.2969 96.9688,325.3125 96.8125,325.4219 C96.5625,325.5781 96.4063,325.8594 96.4063,326.1563 C96.4063,326.4063 96.5469,326.6719 96.7656,326.8281 C96.9219,326.9531 97.125,327 97.5313,327 L102.6719,327 C103.4219,327 103.7813,326.7188 103.7813,326.1563 C103.7813,325.875 103.6719,325.625 103.4375,325.4531 C103.2656,325.3281 103.125,325.2969 102.6719,325.2969 L100.9531,325.2969 L100.9531,318.7813 Z " fill="#000000"/><text fill="#000000" font-family="sans-serif" font-size="14" font-style="italic" lengthAdjust="spacing" textLength="138" x="114" y="326.8467">StructuringFuzzifier</text><line style="stroke:#181818;stroke-width:0.5;" x1="86" x2="254" y1="338" y2="338"/><line style="stroke:#181818;stroke-width:0.5;" x1="86" x2="254" y1="346" y2="346"/></g><!--MD5=[7ec533010ff2f1deaa63074fa6191f8f]
class LambdaLayer--><g id="elem_LambdaLayer"><rect codeLine="17" fill="#F1F1F1" height="48" id="LambdaLayer" rx="2.5" ry="2.5" style="stroke:#181818;stroke-width:0.5;" width="128" x="442" y="190"/><ellipse cx="457" cy="206" fill="#ADD1B2" rx="11" ry="11" style="stroke:#181818;stroke-width:1.0;"/><path d="M459.3438,201.6719 C458.4063,201.2344 457.8125,201.0938 456.9375,201.0938 C454.3125,201.0938 452.3125,203.1719 452.3125,205.8906 L452.3125,207.0156 C452.3125,209.5938 454.4219,211.4844 457.3125,211.4844 C458.5313,211.4844 459.6875,211.1875 460.4375,210.6406 C461.0156,210.2344 461.3438,209.7813 461.3438,209.3906 C461.3438,208.9375 460.9531,208.5469 460.4844,208.5469 C460.2656,208.5469 460.0625,208.625 459.875,208.8125 C459.4219,209.2969 459.4219,209.2969 459.2344,209.3906 C458.8125,209.6563 458.125,209.7813 457.3594,209.7813 C455.3125,209.7813 454.0156,208.6875 454.0156,206.9844 L454.0156,205.8906 C454.0156,204.1094 455.2656,202.7969 457,202.7969 C457.5781,202.7969 458.1875,202.9531 458.6563,203.2031 C459.1406,203.4844 459.3125,203.7031 459.4063,204.1094 C459.4688,204.5156 459.5,204.6406 459.6406,204.7656 C459.7813,204.9063 460.0156,205.0156 460.2344,205.0156 C460.5,205.0156 460.7656,204.875 460.9375,204.6563 C461.0469,204.5 461.0781,204.3125 461.0781,203.8906 L461.0781,202.4688 C461.0781,202.0313 461.0625,201.9063 460.9688,201.75 C460.8125,201.4844 460.5313,201.3438 460.2344,201.3438 C459.9375,201.3438 459.7344,201.4375 459.5156,201.75 L459.3438,201.6719 Z " fill="#000000"/><text fill="#000000" font-family="sans-serif" font-size="14" lengthAdjust="spacing" textLength="96" x="471" y="210.8467">LambdaLayer</text><line style="stroke:#181818;stroke-width:0.5;" x1="443" x2="569" y1="222" y2="222"/><line style="stroke:#181818;stroke-width:0.5;" x1="443" x2="569" y1="230" y2="230"/></g><!--MD5=[88293424f66e18f74a62134799370b57]
class KINS--><g id="elem_KINS"><rect codeLine="19" fill="#F1F1F1" height="48" id="KINS" rx="2.5" ry="2.5" style="stroke:#181818;stroke-width:0.5;" width="65" x="38.5" y="190"/><ellipse cx="53.5" cy="206" fill="#ADD1B2" rx="11" ry="11" style="stroke:#181818;stroke-width:1.0;"/><path d="M55.8438,201.6719 C54.9063,201.2344 54.3125,201.0938 53.4375,201.0938 C50.8125,201.0938 48.8125,203.1719 48.8125,205.8906 L48.8125,207.0156 C48.8125,209.5938 50.9219,211.4844 53.8125,211.4844 C55.0313,211.4844 56.1875,211.1875 56.9375,210.6406 C57.5156,210.2344 57.8438,209.7813 57.8438,209.3906 C57.8438,208.9375 57.4531,208.5469 56.9844,208.5469 C56.7656,208.5469 56.5625,208.625 56.375,208.8125 C55.9219,209.2969 55.9219,209.2969 55.7344,209.3906 C55.3125,209.6563 54.625,209.7813 53.8594,209.7813 C51.8125,209.7813 50.5156,208.6875 50.5156,206.9844 L50.5156,205.8906 C50.5156,204.1094 51.7656,202.7969 53.5,202.7969 C54.0781,202.7969 54.6875,202.9531 55.1563,203.2031 C55.6406,203.4844 55.8125,203.7031 55.9063,204.1094 C55.9688,204.5156 56,204.6406 56.1406,204.7656 C56.2813,204.9063 56.5156,205.0156 56.7344,205.0156 C57,205.0156 57.2656,204.875 57.4375,204.6563 C57.5469,204.5 57.5781,204.3125 57.5781,203.8906 L57.5781,202.4688 C57.5781,202.0313 57.5625,201.9063 57.4688,201.75 C57.3125,201.4844 57.0313,201.3438 56.7344,201.3438 C56.4375,201.3438 56.2344,201.4375 56.0156,201.75 L55.8438,201.6719 Z " fill="#000000"/><text fill="#000000" font-family="sans-serif" font-size="14" lengthAdjust="spacing" textLength="33" x="67.5" y="210.8467">KINS</text><line style="stroke:#181818;stroke-width:0.5;" x1="39.5" x2="102.5" y1="222" y2="222"/><line style="stroke:#181818;stroke-width:0.5;" x1="39.5" x2="102.5" y1="230" y2="230"/></g><!--MD5=[7cf6f81cbd0f8f47cc5ba147851c0165]
class Lukasiewicz--><g id="elem_Lukasiewicz"><rect codeLine="33" fill="#F1F1F1" height="48" id="Lukasiewicz" rx="2.5" ry="2.5" style="stroke:#181818;stroke-width:0.5;" width="116" x="399" y="515"/><ellipse cx="414" cy="531" fill="#ADD1B2" rx="11" ry="11" style="stroke:#181818;stroke-width:1.0;"/><path d="M416.3438,526.6719 C415.4063,526.2344 414.8125,526.0938 413.9375,526.0938 C411.3125,526.0938 409.3125,528.1719 409.3125,530.8906 L409.3125,532.0156 C409.3125,534.5938 411.4219,536.4844 414.3125,536.4844 C415.5313,536.4844 416.6875,536.1875 417.4375,535.6406 C418.0156,535.2344 418.3438,534.7813 418.3438,534.3906 C418.3438,533.9375 417.9531,533.5469 417.4844,533.5469 C417.2656,533.5469 417.0625,533.625 416.875,533.8125 C416.4219,534.2969 416.4219,534.2969 416.2344,534.3906 C415.8125,534.6563 415.125,534.7813 414.3594,534.7813 C412.3125,534.7813 411.0156,533.6875 411.0156,531.9844 L411.0156,530.8906 C411.0156,529.1094 412.2656,527.7969 414,527.7969 C414.5781,527.7969 415.1875,527.9531 415.6563,528.2031 C416.1406,528.4844 416.3125,528.7031 416.4063,529.1094 C416.4688,529.5156 416.5,529.6406 416.6406,529.7656 C416.7813,529.9063 417.0156,530.0156 417.2344,530.0156 C417.5,530.0156 417.7656,529.875 417.9375,529.6563 C418.0469,529.5 418.0781,529.3125 418.0781,528.8906 L418.0781,527.4688 C418.0781,527.0313 418.0625,526.9063 417.9688,526.75 C417.8125,526.4844 417.5313,526.3438 417.2344,526.3438 C416.9375,526.3438 416.7344,526.4375 416.5156,526.75 L416.3438,526.6719 Z " fill="#000000"/><text fill="#000000" font-family="sans-serif" font-size="14" lengthAdjust="spacing" textLength="84" x="428" y="535.8467">Lukasiewicz</text><line style="stroke:#181818;stroke-width:0.5;" x1="400" x2="514" y1="547" y2="547"/><line style="stroke:#181818;stroke-width:0.5;" x1="400" x2="514" y1="555" y2="555"/></g><!--MD5=[e08f40f590dede51c645573d72d05b81]
class Godel--><g id="elem_Godel"><rect codeLine="34" fill="#F1F1F1" height="48" id="Godel" rx="2.5" ry="2.5" style="stroke:#181818;stroke-width:0.5;" width="74" x="290" y="515"/><ellipse cx="305" cy="531" fill="#ADD1B2" rx="11" ry="11" style="stroke:#181818;stroke-width:1.0;"/><path d="M307.3438,526.6719 C306.4063,526.2344 305.8125,526.0938 304.9375,526.0938 C302.3125,526.0938 300.3125,528.1719 300.3125,530.8906 L300.3125,532.0156 C300.3125,534.5938 302.4219,536.4844 305.3125,536.4844 C306.5313,536.4844 307.6875,536.1875 308.4375,535.6406 C309.0156,535.2344 309.3438,534.7813 309.3438,534.3906 C309.3438,533.9375 308.9531,533.5469 308.4844,533.5469 C308.2656,533.5469 308.0625,533.625 307.875,533.8125 C307.4219,534.2969 307.4219,534.2969 307.2344,534.3906 C306.8125,534.6563 306.125,534.7813 305.3594,534.7813 C303.3125,534.7813 302.0156,533.6875 302.0156,531.9844 L302.0156,530.8906 C302.0156,529.1094 303.2656,527.7969 305,527.7969 C305.5781,527.7969 306.1875,527.9531 306.6563,528.2031 C307.1406,528.4844 307.3125,528.7031 307.4063,529.1094 C307.4688,529.5156 307.5,529.6406 307.6406,529.7656 C307.7813,529.9063 308.0156,530.0156 308.2344,530.0156 C308.5,530.0156 308.7656,529.875 308.9375,529.6563 C309.0469,529.5 309.0781,529.3125 309.0781,528.8906 L309.0781,527.4688 C309.0781,527.0313 309.0625,526.9063 308.9688,526.75 C308.8125,526.4844 308.5313,526.3438 308.2344,526.3438 C307.9375,526.3438 307.7344,526.4375 307.5156,526.75 L307.3438,526.6719 Z " fill="#000000"/><text fill="#000000" font-family="sans-serif" font-size="14" lengthAdjust="spacing" textLength="42" x="319" y="535.8467">Godel</text><line style="stroke:#181818;stroke-width:0.5;" x1="291" x2="363" y1="547" y2="547"/><line style="stroke:#181818;stroke-width:0.5;" x1="291" x2="363" y1="555" y2="555"/></g><!--MD5=[7633f14e735becac85dd9b5bbaa36db8]
class SubNetworkBuilder--><g id="elem_SubNetworkBuilder"><rect codeLine="35" fill="#F1F1F1" height="48" id="SubNetworkBuilder" rx="2.5" ry="2.5" style="stroke:#181818;stroke-width:0.5;" width="170" x="85" y="515"/><ellipse cx="100" cy="531" fill="#ADD1B2" rx="11" ry="11" style="stroke:#181818;stroke-width:1.0;"/><path d="M102.3438,526.6719 C101.4063,526.2344 100.8125,526.0938 99.9375,526.0938 C97.3125,526.0938 95.3125,528.1719 95.3125,530.8906 L95.3125,532.0156 C95.3125,534.5938 97.4219,536.4844 100.3125,536.4844 C101.5313,536.4844 102.6875,536.1875 103.4375,535.6406 C104.0156,535.2344 104.3438,534.7813 104.3438,534.3906 C104.3438,533.9375 103.9531,533.5469 103.4844,533.5469 C103.2656,533.5469 103.0625,533.625 102.875,533.8125 C102.4219,534.2969 102.4219,534.2969 102.2344,534.3906 C101.8125,534.6563 101.125,534.7813 100.3594,534.7813 C98.3125,534.7813 97.0156,533.6875 97.0156,531.9844 L97.0156,530.8906 C97.0156,529.1094 98.2656,527.7969 100,527.7969 C100.5781,527.7969 101.1875,527.9531 101.6563,528.2031 C102.1406,528.4844 102.3125,528.7031 102.4063,529.1094 C102.4688,529.5156 102.5,529.6406 102.6406,529.7656 C102.7813,529.9063 103.0156,530.0156 103.2344,530.0156 C103.5,530.0156 103.7656,529.875 103.9375,529.6563 C104.0469,529.5 104.0781,529.3125 104.0781,528.8906 L104.0781,527.4688 C104.0781,527.0313 104.0625,526.9063 103.9688,526.75 C103.8125,526.4844 103.5313,526.3438 103.2344,526.3438 C102.9375,526.3438 102.7344,526.4375 102.5156,526.75 L102.3438,526.6719 Z " fill="#000000"/><text fill="#000000" font-family="sans-serif" font-size="14" lengthAdjust="spacing" textLength="138" x="114" y="535.8467">SubNetworkBuilder</text><line style="stroke:#181818;stroke-width:0.5;" x1="86" x2="254" y1="547" y2="547"/><line style="stroke:#181818;stroke-width:0.5;" x1="86" x2="254" y1="555" y2="555"/></g><!--MD5=[2f073fe683ac4e92887bb6ecd462881e]
class DatalogFormula--><g id="elem_DatalogFormula"><rect codeLine="30" fill="#F1F1F1" height="48" id="DatalogFormula" rx="2.5" ry="2.5" style="stroke:#181818;stroke-width:0.5;" width="145" x="550.5" y="515"/><ellipse cx="565.5" cy="531" fill="#ADD1B2" rx="11" ry="11" style="stroke:#181818;stroke-width:1.0;"/><path d="M567.8438,526.6719 C566.9063,526.2344 566.3125,526.0938 565.4375,526.0938 C562.8125,526.0938 560.8125,528.1719 560.8125,530.8906 L560.8125,532.0156 C560.8125,534.5938 562.9219,536.4844 565.8125,536.4844 C567.0313,536.4844 568.1875,536.1875 568.9375,535.6406 C569.5156,535.2344 569.8438,534.7813 569.8438,534.3906 C569.8438,533.9375 569.4531,533.5469 568.9844,533.5469 C568.7656,533.5469 568.5625,533.625 568.375,533.8125 C567.9219,534.2969 567.9219,534.2969 567.7344,534.3906 C567.3125,534.6563 566.625,534.7813 565.8594,534.7813 C563.8125,534.7813 562.5156,533.6875 562.5156,531.9844 L562.5156,530.8906 C562.5156,529.1094 563.7656,527.7969 565.5,527.7969 C566.0781,527.7969 566.6875,527.9531 567.1563,528.2031 C567.6406,528.4844 567.8125,528.7031 567.9063,529.1094 C567.9688,529.5156 568,529.6406 568.1406,529.7656 C568.2813,529.9063 568.5156,530.0156 568.7344,530.0156 C569,530.0156 569.2656,529.875 569.4375,529.6563 C569.5469,529.5 569.5781,529.3125 569.5781,528.8906 L569.5781,527.4688 C569.5781,527.0313 569.5625,526.9063 569.4688,526.75 C569.3125,526.4844 569.0313,526.3438 568.7344,526.3438 C568.4375,526.3438 568.2344,526.4375 568.0156,526.75 L567.8438,526.6719 Z " fill="#000000"/><text fill="#000000" font-family="sans-serif" font-size="14" lengthAdjust="spacing" textLength="113" x="579.5" y="535.8467">DatalogFormula</text><line style="stroke:#181818;stroke-width:0.5;" x1="551.5" x2="694.5" y1="547" y2="547"/><line style="stroke:#181818;stroke-width:0.5;" x1="551.5" x2="694.5" y1="555" y2="555"/></g><path d="M25,512.5 L33,512.5 A3.75,3.75 0 0 1 35.5,515 L42.5,534.7969 L47,534.7969 A2.5,2.5 0 0 1 49.5,537.2969 L49.5,562.5938 A2.5,2.5 0 0 1 47,565.0938 L25,565.0938 A2.5,2.5 0 0 1 22.5,562.5938 L22.5,515 A2.5,2.5 0 0 1 25,512.5 " fill="#F1F1F1" style="stroke:#181818;stroke-width:0.5;"/><line style="stroke:#181818;stroke-width:0.5;" x1="22.5" x2="42.5" y1="534.7969" y2="534.7969"/><text fill="#000000" font-family="sans-serif" font-size="14" lengthAdjust="spacing" textLength="7" x="26.5" y="527.4951">*</text><!--MD5=[c917907ed7809c7fcbd1bb695843ffd7]
link Injector to Formula--><g id="link_Injector_Formula"><path codeLine="21" d="M443.844,81.5 C455.324,81.5 466.805,81.5 478.286,81.5 " fill="none" id="Injector-Formula" style="stroke:#181818;stroke-width:1.0;"/><text fill="#000000" font-family="sans-serif" font-size="13" lengthAdjust="spacing" textLength="7" x="463.4425" y="77.3822">*</text></g><!--MD5=[20098e09c6ab1fe824b081f06cad4be7]
reverse link Injector to KINS--><g id="link_Injector_KINS"><path codeLine="38" d="M201.532,132.688 C175.723,148.436 147.156,165.909 121,182 C115.346,185.479 109.339,189.189 103.524,192.79 " fill="none" id="Injector-backto-KINS" style="stroke:#181818;stroke-width:1.0;"/><polygon fill="none" points="198.176,126.536,218.896,122.099,205.465,138.489,198.176,126.536" style="stroke:#181818;stroke-width:1.0;"/></g><!--MD5=[9d386cd530bc21c8699d6bf6e5a3b659]
reverse link Fuzzifier to ConstrainingFuzzifier--><g id="link_Fuzzifier_ConstrainingFuzzifier"><path codeLine="39" d="M328.859,258.616 C349.448,274.692 371.966,292.275 389.345,305.845 " fill="none" id="Fuzzifier-backto-ConstrainingFuzzifier" style="stroke:#181818;stroke-width:1.0;"/><polygon fill="none" points="324.351,263.977,312.895,246.151,332.967,252.942,324.351,263.977" style="stroke:#181818;stroke-width:1.0;"/></g><!--MD5=[52bf50529554732cf6f385163335760b]
reverse link Fuzzifier to StructuringFuzzifier--><g id="link_Fuzzifier_StructuringFuzzifier"><path codeLine="40" d="M231.426,261.014 C217.503,276.423 202.575,292.946 190.921,305.845 " fill="none" id="Fuzzifier-backto-StructuringFuzzifier" style="stroke:#181818;stroke-width:1.0;"/><polygon fill="none" points="226.253,256.298,244.855,246.151,236.641,265.684,226.253,256.298" style="stroke:#181818;stroke-width:1.0;"/></g><!--MD5=[067a1094b3f1624a0c95b78059a6ae99]
reverse link ConstrainingFuzzifier to Lukasiewicz--><g id="link_ConstrainingFuzzifier_Lukasiewicz"><path codeLine="41" d="M426.937,374.234 C434.784,416.979 446.494,480.769 452.73,514.742 " fill="none" id="ConstrainingFuzzifier-backto-Lukasiewicz" style="stroke:#181818;stroke-width:1.0;"/><polygon fill="none" points="420.012,375.278,423.285,354.343,433.781,372.751,420.012,375.278" style="stroke:#181818;stroke-width:1.0;"/></g><!--MD5=[24ca785f9dcdd9801f21885b39faada5]
reverse link ConstrainingFuzzifier to Godel--><g id="link_ConstrainingFuzzifier_Godel"><path codeLine="42" d="M389.698,370.839 C386.565,375.827 383.583,380.952 381,386 C358.739,429.503 341.736,484.324 333.166,514.82 " fill="none" id="ConstrainingFuzzifier-backto-Godel" style="stroke:#181818;stroke-width:1.0;"/><polygon fill="none" points="383.92,366.887,400.922,354.24,395.518,374.729,383.92,366.887" style="stroke:#181818;stroke-width:1.0;"/></g><!--MD5=[8657b1feae6e42ca738127c68033222a]
reverse link StructuringFuzzifier to SubNetworkBuilder--><g id="link_StructuringFuzzifier_SubNetworkBuilder"><path codeLine="43" d="M170,374.528 C170,417.271 170,480.847 170,514.742 " fill="none" id="StructuringFuzzifier-backto-SubNetworkBuilder" style="stroke:#181818;stroke-width:1.0;"/><polygon fill="none" points="163,374.343,170,354.343,177,374.343,163,374.343" style="stroke:#181818;stroke-width:1.0;"/></g><!--MD5=[9d8dae5e2ed25868d7029b1b8026f243]
reverse link Formula to DatalogFormula--><g id="link_Formula_DatalogFormula"><path codeLine="44" d="M555.57,122.008 C567.792,139.416 580.598,160.724 588,182 C629.628,301.657 627.137,456.674 624.407,514.713 " fill="none" id="Formula-backto-DatalogFormula" style="stroke:#181818;stroke-width:1.0;"/><polygon fill="none" points="549.805,125.985,543.532,105.745,561.058,117.655,549.805,125.985" style="stroke:#181818;stroke-width:1.0;"/></g><!--MD5=[f5cb00e6fa4affd0b9a7c73b31a45966]
reverse link Injector to LambdaLayer--><g id="link_Injector_LambdaLayer"><path codeLine="45" d="M368.492,132.168 C402.285,152.033 439.56,173.944 466.766,189.937 " fill="none" id="Injector-backto-LambdaLayer" style="stroke:#181818;stroke-width:1.0;"/><polygon fill="none" points="364.904,138.178,351.21,122.008,371.999,126.109,364.904,138.178" style="stroke:#181818;stroke-width:1.0;"/></g><!--MD5=[9690e34d15162d2c37691038067c33c6]
reverse link LambdaLayer to ConstrainingFuzzifier--><g id="link_LambdaLayer_ConstrainingFuzzifier"><path codeLine="46" d="M480.495,248.421 C466.378,266.919 449.191,289.439 436.58,305.965 " fill="none" id="LambdaLayer-backto-ConstrainingFuzzifier" style="stroke:#181818;stroke-width:1.0;"/><polygon fill="#181818" points="488.394,238.07,481.5743,240.4134,481.1145,247.6099,487.9342,245.2664,488.394,238.07" style="stroke:#181818;stroke-width:1.0;"/><text fill="#000000" font-family="sans-serif" font-size="13" lengthAdjust="spacing" textLength="8" x="432.0599" y="294.9681">1</text></g><!--MD5=[a1c189b88d19f62c3b20955a369c4785]
reverse link KINS to StructuringFuzzifier--><g id="link_KINS_StructuringFuzzifier"><path codeLine="47" d="M99.574,247.903 C115.721,266.497 135.511,289.285 149.996,305.965 " fill="none" id="KINS-backto-StructuringFuzzifier" style="stroke:#181818;stroke-width:1.0;"/><polygon fill="#181818" points="91.034,238.07,91.948,245.2229,98.9022,247.1304,97.9882,239.9775,91.034,238.07" style="stroke:#181818;stroke-width:1.0;"/><text fill="#000000" font-family="sans-serif" font-size="13" lengthAdjust="spacing" textLength="8" x="135.845" y="294.9681">1</text></g><!--MD5=[9bdf4276c8b25075de00c3e9f674af6a]
@startuml
package ski {

  interface Injector{
    + predictor: Predictor
    + inject(formulae: List[Formula]): Predictor
  }

  interface Formula{}

  interface Fuzzifier{
    + visit(formulae: List[Formula]): Any
  }

  interface ConstrainingFuzzifier{}
  interface StructuringFuzzifier{}

  class LambdaLayer{}

  class KINS{}

  Injector - "*" Formula

}

package logic {

  package datalog {

    package grammar{
      class DatalogFormula{}
    }

    class Lukasiewicz{}
    class Godel{}
    class SubNetworkBuilder{}

    
    Injector <|- - KINS
    Fuzzifier <|- - ConstrainingFuzzifier
    Fuzzifier <|- - StructuringFuzzifier
    ConstrainingFuzzifier <|- - Lukasiewicz
    ConstrainingFuzzifier <|- - Godel
    StructuringFuzzifier <|- - SubNetworkBuilder
    Formula <|- - DatalogFormula
    Injector <|- - LambdaLayer
    LambdaLayer *- - "1" ConstrainingFuzzifier
    KINS *- - "1" StructuringFuzzifier

  }

  package * {}
}
@enduml

PlantUML version 1.2022.6beta4(Unknown compile time)
(GPL source distribution)
Java Runtime: Java(TM) SE Runtime Environment
JVM: Java HotSpot(TM) 64-Bit Server VM
Default Encoding: UTF-8
Language: en
Country: US
--></g></svg>